<?xml version="1.0" encoding="utf-8"?>
<svg xmlns="http://www.w3.org/2000/svg">
  <defs>

    <symbol id="location" viewBox="0 0 17 25">
      <g style="fill: var(--icon-fill); stroke: var(--icon-stroke);">
        <path
          fill-rule="evenodd"
          clip-rule="evenodd"
          d="M13.0135 16.4277C14.6887 13.4115 15.8 10.5185 15.8 8.5C15.8 4.46832 12.5317 1.2 8.5 1.2C4.46832 1.2 1.2 4.46832 1.2 8.5C1.2 10.5185 2.31126 13.4115 3.98655 16.4277C5.35018 18.8828 7.00839 21.2811 8.5 23.1323C9.99161 21.2811 11.6498 18.8828 13.0135 16.4277ZM9.28309 24.0718C12.6993 19.8836 17 12.8538 17 8.5C17 3.80558 13.1944 0 8.5 0C3.80558 0 0 3.80558 0 8.5C0 12.8538 4.30072 19.8836 7.71691 24.0718C7.98418 24.3995 8.24604 24.7098 8.5 25C8.75396 24.7098 9.01582 24.3995 9.28309 24.0718Z"
        />
        <path
          fill-rule="evenodd"
          clip-rule="evenodd"
          d="M8.5 11.8C10.3225 11.8 11.8 10.3225 11.8 8.5C11.8 6.67746 10.3225 5.2 8.5 5.2C6.67746 5.2 5.2 6.67746 5.2 8.5C5.2 10.3225 6.67746 11.8 8.5 11.8ZM8.5 13C10.9853 13 13 10.9853 13 8.5C13 6.01472 10.9853 4 8.5 4C6.01472 4 4 6.01472 4 8.5C4 10.9853 6.01472 13 8.5 13Z"
        />
      </g>
    </symbol>

    <symbol id="exclamation" viewBox="0 0 42 42">
      <g style=" transform: translate(-15%, -15%);">
        <circle
          cx="21" cy="21" r="10.4" stroke-width="1.2"
          style="fill: transparent; stroke: var(--icon-stroke);"
        />
        <path
          d="M20.2616 22.084L19.8896 16.6H22.1216L21.7496 22.084H20.2616ZM21.0056 25.096C20.6696 25.096 20.3936 24.988 20.1776 24.772C19.9616 24.556 19.8536 24.3 19.8536 24.004C19.8536 23.7 19.9616 23.448 20.1776 23.248C20.3936 23.04 20.6696 22.936 21.0056 22.936C21.3496 22.936 21.6256 23.04 21.8336 23.248C22.0496 23.448 22.1576 23.7 22.1576 24.004C22.1576 24.3 22.0496 24.556 21.8336 24.772C21.6256 24.988 21.3496 25.096 21.0056 25.096Z"
          style="fill: var(--icon-fill); stroke: var(--icon-stroke);"
        />
      </g>
    </symbol>

    <symbol id="globe" viewBox="0 0 42 42">
      <path
        d="M20.2551 19.3347C20.2382 19.3573 20.2199 19.3788 20.2004 19.3992C20.2002 19.3994 20.2 19.3996 20.1999 19.3998L20.1638 19.3652C19.1336 20.5093 17.8745 21.4241 16.4681 22.0502C15.0617 22.6764 13.5394 23 11.9999 23C10.4604 23 8.93812 22.6764 7.53172 22.0502C6.12532 21.4241 4.86623 20.5093 3.8361 19.3652L20.2551 19.3347ZM20.2551 19.3347C22.0523 17.3189 23.0469 14.7134 23.05 12.0127C23.0531 9.31225 22.0646 6.70464 20.2723 4.68481C20.2507 4.6545 20.2264 4.62613 20.1999 4.60004C19.1655 3.45136 17.9012 2.53285 16.4891 1.90405C15.0765 1.27505 13.5474 0.95 12.0011 0.95C10.4548 0.95 8.92576 1.27505 7.51315 1.90405C6.10132 2.53272 4.83731 3.45098 3.80303 4.59934C3.77482 4.62505 3.74949 4.65374 3.72747 4.68491C1.93817 6.70145 0.95 9.30392 0.95 11.9999C0.95 14.696 1.9382 17.2985 3.72756 19.315C3.74919 19.3454 3.77343 19.3737 3.80001 19.3998L20.2551 19.3347ZM2.00916 11.4717C2.12317 9.33687 2.9227 7.29559 4.28916 5.65119C5.12872 6.06834 6.00914 6.39756 6.91638 6.63361C6.47862 8.21017 6.24185 9.83573 6.21171 11.4717H2.00916ZM19.7107 5.65119C21.0772 7.29559 21.8767 9.33687 21.9907 11.4717H17.7881C17.758 9.83573 17.5212 8.21016 17.0835 6.63361C17.9907 6.39755 18.8711 6.06834 19.7107 5.65119ZM7.97002 6.87611C9.12355 7.10852 10.2953 7.23906 11.4717 7.26621V11.4717H7.26848C7.3048 9.91612 7.54057 8.37165 7.97002 6.87611ZM8.29873 18.1331C9.34481 17.9295 10.4062 17.8148 11.4717 17.7902V21.9278C10.8482 21.7731 10.253 21.3462 9.71583 20.7007C9.17106 20.0461 8.68838 19.1695 8.29873 18.1331ZM16.7314 12.5282C16.6951 14.0814 16.46 15.6236 16.0318 17.1171C14.8774 16.8867 13.705 16.7584 12.5282 16.7335V12.5282H16.7314ZM15.7011 5.86674C14.655 6.07032 13.5936 6.18504 12.5282 6.20967V2.07203C13.1517 2.22679 13.7468 2.65361 14.284 3.29912C14.8288 3.95373 15.3115 4.83037 15.7011 5.86674ZM16.7556 5.62509C16.3647 4.46119 15.7522 3.38436 14.9524 2.4538C16.4583 2.92133 17.8327 3.73878 18.9629 4.83979C18.2525 5.1679 17.5137 5.43075 16.7556 5.62509ZM9.04703 2.45412C8.24521 3.38602 7.63133 4.46487 7.23983 5.63114C6.48329 5.4369 5.74596 5.17442 5.03689 4.84692C6.16621 3.74348 7.54058 2.92367 9.04703 2.45412ZM5.03689 19.1601C5.74596 18.8326 6.48329 18.5701 7.23983 18.3759C7.63134 19.5422 8.24521 20.621 9.04702 21.5529C7.54058 21.0834 6.16621 20.2635 5.03689 19.1601ZM14.9524 21.5463C15.7514 20.6178 16.3638 19.5434 16.7556 18.3819C17.5136 18.5763 18.2524 18.8391 18.9628 19.1672C17.8319 20.2657 16.4576 21.0807 14.9524 21.5463ZM4.28924 18.3486C2.92704 16.7027 2.1317 14.6616 2.02104 12.5282H6.21171C6.24185 14.1641 6.47862 15.7897 6.91638 17.3662C6.00916 17.6023 5.12877 17.9315 4.28924 18.3486ZM11.4717 2.07203V6.20978C10.4064 6.18743 9.345 6.07504 8.29871 5.87378C8.68837 4.83391 9.17107 3.95549 9.71585 3.29999C10.253 2.65362 10.8482 2.22679 11.4717 2.07203ZM11.4717 12.5282V16.7335C10.2955 16.7584 9.12377 16.8866 7.97004 17.1167C7.54119 15.6234 7.30542 14.0814 7.2685 12.5282H11.4717ZM12.5282 21.9206V17.7901C13.5934 17.8124 14.6548 17.9248 15.7011 18.1261C15.3114 19.1624 14.8288 20.039 14.284 20.6936C13.7468 21.3391 13.1517 21.7659 12.5282 21.9206ZM12.5282 11.4717V7.26631C13.7044 7.24146 14.8761 7.11326 16.0298 6.88319C16.4587 8.37645 16.6944 9.91849 16.7314 11.4717H12.5282ZM19.7107 18.3487C18.8711 17.9315 17.9907 17.6023 17.0835 17.3662C17.5212 15.7897 17.758 14.1641 17.7881 12.5282H21.9907C21.8767 14.663 21.0772 16.7043 19.7107 18.3487Z"
        stroke-width="0.1"
        style="fill: var(--icon-fill); stroke: var(--icon-stroke); transform: translate(10%, 10%) scale(1.3);"
      />
    </symbol>

    <symbol id="letter" viewBox="0 0 20 14">
      <path
        d="M0 14H20V0H0V14ZM18.1053 1.07692L10 8.64231L1.89474 1.07692H18.1053ZM1.05263 1.75L10 10.0962L18.9474 1.75V12.9231H1.05263V1.75Z"
        style="fill: var(--icon-fill); stroke: var(--icon-stroke); transform: translate(10%, 10%) scale(0.8);"
      />
    </symbol>

    <symbol id="phone" viewBox="0 0 42 42">
      <path
        d="M30.3843 28.2625C31.201 27.4078 31.2066 26.3741 30.3928 25.5023C29.4939 24.5368 28.5609 23.6111 27.6166 22.7507C26.7659 21.9754 25.7706 22.0123 24.8801 22.8472C24.3158 23.3782 23.8706 23.8184 23.4821 24.2358C23.4112 24.3125 23.3715 24.3352 23.3687 24.3409C23.3574 24.3381 23.329 24.3295 23.2808 24.3011C20.757 22.8103 18.928 20.9702 17.6916 18.6757C17.6689 18.6331 17.6576 18.6075 17.6547 18.5905C17.6661 18.5763 17.6859 18.5508 17.7256 18.511C18.3013 17.9658 18.7578 17.5029 19.1633 17.0514C19.9375 16.191 19.9517 15.0806 19.203 14.2912C18.2899 13.3257 17.4194 12.4568 16.5488 11.6332C15.6782 10.8097 14.5978 10.787 13.7329 11.5793C13.6082 11.6957 13.4805 11.8093 13.3529 11.9229C12.5079 12.6782 11.6373 13.4592 11.1524 14.6234L11.1212 14.7257C10.9596 15.5009 10.9596 15.9922 11.1212 16.7561L11.1297 16.7873C11.8273 19.3771 13.0495 21.7483 14.7623 23.8383C17.581 27.2772 20.757 29.495 24.4661 30.6195C24.6618 30.6791 24.8575 30.7331 25.0531 30.7899L25.3197 30.8637L25.3736 30.8751C25.7904 30.9517 26.0995 31 26.4001 31C26.6752 31 26.9446 30.9602 27.2848 30.8637L27.3472 30.841C28.4446 30.3895 29.1819 29.5773 29.8965 28.7907C30.0582 28.6118 30.2198 28.4357 30.3843 28.2625ZM29.5648 27.4759C29.3918 27.6548 29.2245 27.8423 29.0572 28.0268C28.4078 28.7424 27.7953 29.4211 26.9474 29.7789C26.522 29.8954 26.315 29.8925 25.6061 29.7619L25.3622 29.6937C25.1751 29.6398 24.9851 29.5887 24.7979 29.5319C21.3071 28.4727 18.3126 26.3741 15.6414 23.117C14.0335 21.1576 12.8879 18.9341 12.23 16.5062C12.1081 15.9269 12.1052 15.5918 12.2215 15.0125C12.61 14.1123 13.3388 13.462 14.1072 12.772C14.2377 12.6555 14.3681 12.5363 14.4986 12.4198C14.9183 12.0365 15.3351 12.0478 15.769 12.4596C16.6254 13.2689 17.4789 14.1265 18.3807 15.075C18.8429 15.5605 18.5395 16.0461 18.3183 16.2932C17.9355 16.7191 17.4988 17.1621 16.9458 17.6846C16.356 18.2412 16.4836 18.8234 16.6934 19.2124C18.0319 21.6943 19.997 23.6793 22.7051 25.278C23.1021 25.5137 23.7033 25.6557 24.3073 25.0082C24.6788 24.6107 25.1042 24.1876 25.6515 23.6736C26.1789 23.1795 26.5107 23.2817 26.8481 23.5884C27.7697 24.4289 28.6828 25.332 29.5591 26.2747C29.9674 26.7092 29.9674 27.0557 29.5648 27.4759Z"
        style="fill: var(--icon-fill); stroke: var(--icon-stroke);"
      />
    </symbol>

    <symbol id="instagram" viewBox="0 0 20 20">
      <path
        d="M14.5 9.99813V10C14.5 12.4955 12.4594 14.5 9.99998 14.5C7.50181 14.5 5.5 12.4982 5.5 10C5.5 7.5045 7.54052 5.5 9.99998 5.5C12.4708 5.5 14.5093 7.50513 14.5 9.99813ZM15.5 5C15.5 5.27614 15.2761 5.5 15 5.5C14.7239 5.5 14.5 5.27614 14.5 5C14.5 4.72386 14.7239 4.5 15 4.5C15.2761 4.5 15.5 4.72386 15.5 5ZM6.29088 9.96894C6.29088 12.0049 7.96401 13.6781 9.99998 13.6781C12.036 13.6781 13.7091 12.0049 13.7091 9.96894C13.7091 7.93297 12.036 6.25983 9.99998 6.25983C7.96401 6.25983 6.29088 7.93297 6.29088 9.96894ZM6.0102 0.5H13.9898C17.029 0.5 19.5 2.97457 19.5 6.0225V14.0184C19.5 17.0522 17.0329 19.5 13.9898 19.5H6.0102C2.97098 19.5 0.5 17.0254 0.5 13.9775V6.0225C0.5 2.97457 2.97098 0.5 6.0102 0.5ZM13.9898 18.6493C16.5424 18.6493 18.6122 16.5737 18.6122 14.0184V6.0225C18.6122 3.46715 16.5424 1.39162 13.9898 1.39162H6.0102C3.45759 1.39162 1.38776 3.46715 1.38776 6.0225V14.0184C1.38776 16.5737 3.45759 18.6493 6.0102 18.6493H13.9898Z"
        style="fill: var(--icon-fill); stroke: var(--icon-stroke);"
      />
    </symbol>

    <symbol id="facebook" viewBox="0 0 8 18">
      <path
        d="M1.76005 6.32163H2.26005V5.82163V3.23834C2.26005 1.71961 3.44954 0.5 4.84895 0.5H7.49944V2.63685H6.04578C5.31643 2.63685 4.78016 3.23382 4.78016 3.93952V5.82163V6.32163H5.28016H7.4253L7.26478 8.42158H5.31536H4.81536V8.92158V17.5H2.29525V9.05074V8.55074H2.26005V8.44926H1.76005H0.5V6.32163H1.76005Z"
        style="fill: var(--icon-fill); stroke: var(--icon-stroke);"
      />
    </symbol>

    <symbol id="heart" viewBox="0 0 22 20">
      <path
        d="M10.8954 3.24385C10.6932 2.94793 10.4752 2.65491 10.2086 2.40056L10.2085 2.40053C9.1778 1.41781 7.84547 0.875 6.46052 0.875C3.3767 0.875 0.875 3.51866 0.875 6.74965C0.875 8.8791 1.52376 10.6016 2.9814 12.3924C4.0443 13.6985 5.87819 15.3107 7.46783 16.613C9.03305 17.8954 10.3705 18.8844 10.5231 18.9973L10.529 19.0017C10.5291 19.0018 10.5293 19.0019 10.5295 19.002C10.6412 19.0861 10.7702 19.125 10.8953 19.125C11.0203 19.125 11.1497 19.0865 11.2618 19.0015L11.2676 18.9972C11.4207 18.884 12.7577 17.8952 14.3225 16.6133C15.9121 15.311 17.746 13.6988 18.8092 12.3924C20.2668 10.602 20.9156 8.8791 20.9156 6.74965C20.9156 3.51863 18.4126 0.875 15.3289 0.875C13.9435 0.875 12.6127 1.41947 11.5821 2.40174C11.3155 2.65555 11.0976 2.94829 10.8954 3.24385ZM10.3299 4.71793L10.33 4.71805C10.5588 5.20039 11.2306 5.20039 11.4594 4.71805L11.4595 4.7179C11.7015 4.20599 12.0279 3.75274 12.4319 3.36816L12.432 3.36803C13.232 2.60419 14.2605 2.18696 15.3289 2.18696C17.7101 2.18696 19.6561 4.22406 19.6561 6.74869C19.6561 8.56482 19.1354 9.9631 17.8498 11.5426C16.9905 12.5978 15.4887 13.9481 14.069 15.1339C12.717 16.2631 11.4469 17.2369 10.8944 17.6539C10.3421 17.2367 9.07223 16.2629 7.72037 15.1336C6.30081 13.9479 4.7992 12.5976 3.94015 11.5426C2.65454 9.96342 2.13386 8.56514 2.13386 6.74869C2.13386 4.22465 4.07868 2.18696 6.46052 2.18696C7.52846 2.18696 8.5565 2.60478 9.35744 3.36812C9.76151 3.75374 10.0879 4.2064 10.3299 4.71793Z"
        stroke-width="0.25"
        style="fill: var(--icon-fill); stroke: var(--icon-stroke);"
      />
    </symbol>

  </defs>
</svg>
